<?xml version="1.0" encoding="UTF-8"?>
<!DOCTYPE svg PUBLIC "-//W3C//DTD SVG 1.1//EN" "http://www.w3.org/Graphics/SVG/1.1/DTD/svg11.dtd">
<!-- Creator: CorelDRAW 2020 (64 Bit) -->
<svg xmlns="http://www.w3.org/2000/svg" xml:space="preserve" width="114.03mm" height="92.4723mm" version="1.1" style="shape-rendering:geometricPrecision; text-rendering:geometricPrecision; image-rendering:optimizeQuality; fill-rule:evenodd; clip-rule:evenodd"
viewBox="0 0 12604.88 10221.89"
 xmlns:xlink="http://www.w3.org/1999/xlink"
 xmlns:xodm="http://www.corel.com/coreldraw/odm/2003">
 <defs>
  <style type="text/css">
   <![CDATA[
    .str0 {stroke:#00A859;stroke-width:22.11;stroke-miterlimit:22.9256}
    .fil1 {fill:none}
    .fil3 {fill:#CCE7D4}
    .fil2 {fill:#CCE7D4}
    .fil4 {fill:#CBE7D3}
    .fil5 {fill:#CAE6D2}
    .fil6 {fill:#C9E6D1}
    .fil7 {fill:#C7E5D0}
    .fil8 {fill:#C5E4CE}
    .fil9 {fill:#C2E3CC}
    .fil10 {fill:#C0E2CA}
    .fil11 {fill:#BEE1C8}
    .fil12 {fill:#BBE0C6}
    .fil13 {fill:#B8DEC4}
    .fil14 {fill:#B5DDC2}
    .fil15 {fill:#B3DCC0}
    .fil16 {fill:#B0DBBD}
    .fil17 {fill:#ACD9BB}
    .fil18 {fill:#AAD8B8}
    .fil19 {fill:#A7D7B6}
    .fil20 {fill:#A4D6B4}
    .fil21 {fill:#A0D5B1}
    .fil22 {fill:#9DD3AF}
    .fil23 {fill:#9BD2AD}
    .fil24 {fill:#98D1AB}
    .fil25 {fill:#95D0A9}
    .fil26 {fill:#92CFA7}
    .fil27 {fill:#8FCEA5}
    .fil28 {fill:#8DCDA3}
    .fil29 {fill:#8ACCA2}
    .fil30 {fill:#87CBA0}
    .fil31 {fill:#84CA9E}
    .fil32 {fill:#81C99C}
    .fil33 {fill:#7EC89A}
    .fil34 {fill:#7CC799}
    .fil35 {fill:#7AC697}
    .fil36 {fill:#76C695}
    .fil37 {fill:#74C594}
    .fil38 {fill:#71C492}
    .fil39 {fill:#6FC391}
    .fil40 {fill:#6DC390}
    .fil41 {fill:#6AC28E}
    .fil42 {fill:#68C18D}
    .fil43 {fill:#66C18C}
    .fil44 {fill:#63C08B}
    .fil45 {fill:#60BF89}
    .fil46 {fill:#5EBF88}
    .fil47 {fill:#5BBE86}
    .fil48 {fill:#59BD85}
    .fil49 {fill:#57BD84}
    .fil50 {fill:#54BC83}
    .fil51 {fill:#52BB82}
    .fil52 {fill:#50BB81}
    .fil53 {fill:#4DBB80}
    .fil54 {fill:#4ABA7E}
    .fil55 {fill:#47BA7D}
    .fil56 {fill:#45B97D}
    .fil57 {fill:#42B97B}
    .fil58 {fill:#40B87B}
    .fil59 {fill:#3DB879}
    .fil60 {fill:#3AB778}
    .fil61 {fill:#38B778}
    .fil62 {fill:#37B777}
    .fil63 {fill:#33B676}
    .fil64 {fill:#31B675}
    .fil65 {fill:#2BB574}
    .fil66 {fill:#29B573}
    .fil67 {fill:#26B573}
    .fil68 {fill:#23B572}
    .fil69 {fill:#1EB471}
    .fil70 {fill:#1BB470}
    .fil71 {fill:#18B370}
    .fil72 {fill:#15B36F}
    .fil73 {fill:#12B36E}
    .fil74 {fill:#0FB36E}
    .fil75 {fill:#0AB26D}
    .fil76 {fill:#07B26C}
    .fil77 {fill:#04B26B}
    .fil78 {fill:#01B16B}
    .fil79 {fill:#00B16A}
    .fil80 {fill:#00B16A}
    .fil81 {fill:#00B169}
    .fil82 {fill:#00B069}
    .fil83 {fill:#00B068}
    .fil84 {fill:#00B068}
    .fil85 {fill:#00B067}
    .fil86 {fill:#00AF67}
    .fil87 {fill:#00AF66}
    .fil88 {fill:#00AF66}
    .fil89 {fill:#00AF65}
    .fil90 {fill:#00AE65}
    .fil91 {fill:#00AE64}
    .fil92 {fill:#00AE64}
    .fil93 {fill:#00AE63}
    .fil94 {fill:#00AE63}
    .fil95 {fill:#00AD62}
    .fil96 {fill:#00AD62}
    .fil97 {fill:#00AD62}
    .fil98 {fill:#00AD61}
    .fil99 {fill:#00AC61}
    .fil100 {fill:#00AC60}
    .fil101 {fill:#00AC60}
    .fil102 {fill:#00AC5F}
    .fil103 {fill:#00AB5F}
    .fil104 {fill:#00AB5E}
    .fil105 {fill:#00AB5E}
    .fil106 {fill:#00AB5E}
    .fil107 {fill:#00AB5D}
    .fil108 {fill:#00AA5D}
    .fil109 {fill:#00AA5C}
    .fil110 {fill:#00AA5C}
    .fil111 {fill:#00AA5C}
    .fil112 {fill:#00A95B}
    .fil113 {fill:#00A95B}
    .fil114 {fill:#00A95B}
    .fil115 {fill:#00A95A}
    .fil116 {fill:#00A95A}
    .fil117 {fill:#00A85A}
    .fil118 {fill:#00A859}
    .fil119 {fill:#00A859}
    .fil120 {fill:#00A859}
    .fil0 {fill:#00A859}
   ]]>
  </style>
     <clipPath id="id0">
      <path d="M5211.06 0c2828.62,0 5233.12,1751.63 6114.09,4192.48l-413.01 48.75c-994.97,-2377.45 -3259.34,-3926.18 -5835.82,-3911.95 -1975.22,10.91 -3454.1,345.55 -5076.31,2035.47 -0.21,1.36 1579.67,-2364.76 5211.04,-2364.76z"/>
     </clipPath>
 </defs>
 <g id="Camada_x0020_1">
  <metadata id="CorelCorpID_0Corel-Layer"/>
  <g id="_1526542970752">
   <g>
    <path class="fil0" d="M11708.63 5634.9l-37.64 3.84 2.5 35.11 839.16 -35.1c13.94,115.75 51.25,269.94 42.52,382.05 -203.95,36.9 -689.15,50.09 -789,66.48l259.24 8.67c190.58,4.1 446.57,-35.06 567.31,-47.7 5.69,-95.03 -12.17,-146.35 -18.58,-232.73 -5.42,-72.96 -25.78,-137.88 -38.04,-213.02 -159.7,-5.66 -758.64,48.66 -827.48,32.41zm-905.72 494.66c65.52,-16.13 186.34,-7.65 245.32,-8.31 86.13,-0.96 230.88,-15.59 297.67,-11.54 33.02,63.31 78.73,603.77 79.8,738.45 0.62,79.06 -7.11,205.95 3.42,278.38l389.9 0.49c8.66,-74.31 3.35,-255.65 -3.11,-331.9 -8.87,-104.5 -8.98,-208.05 -13.5,-319.11 -16.18,-16.8 -21.6,-5.87 -27.47,-92.67 -2.21,-32.76 0.96,-66.64 -2.02,-98.56 -6,-64.16 -17.54,-115.16 -17.73,-183.28 -26.7,42.92 -2.26,190 3.55,238.34 10.05,83.45 3.86,171.27 11.99,255.03 6.1,62.92 20.33,447.83 8.06,499.5l-311.1 5.53c-19.11,-135.94 -3.98,-405.81 -33.2,-588.29 -8.69,-54.29 -15.63,-138.34 -20.98,-193.47 -30.65,-316.01 34.82,-240.42 -598.66,-217.09l-11.94 28.5zm-37.06 -424.65c70.24,22.22 166.17,-6.42 244.69,-9.12 100.38,-3.45 232.6,-1.15 308.88,-35.67 9.29,-108.63 -68.21,-361.39 -87.79,-466.37 -19.06,-102.23 -103.2,-391.68 -107.78,-447.88 62.84,-27.07 96.1,-13.55 166.19,-21.49 54.73,-6.2 36.3,-22.43 176.79,-20.47 22.72,33.79 52.2,190.71 60.73,232.69 17.35,85.34 40.94,157.21 55,240.73l73.13 368.71c7.52,50.21 -7.61,84.17 15.3,92.7 26.73,9.95 -1.22,15.49 22.85,-6.62 7.61,-68.53 -170.47,-909.34 -199.1,-961.1 -60.26,-10 -237.32,16.46 -304.07,28.67 -34.31,6.28 -73.96,3.74 -109.97,5.71 0.69,46.87 143.23,587.3 166.25,708.36l32.1 233.03c-24.04,12.06 -431.04,20.36 -511.93,39.23l-1.27 18.88zm44.57 396.37l4.43 -0.22c633.48,-23.34 568.01,-98.92 598.66,217.09 5.35,55.13 12.29,139.18 20.98,193.47 29.22,182.48 14.08,452.35 33.2,588.29l311.1 -5.53c12.27,-51.67 -1.96,-436.58 -8.06,-499.5 -8.14,-83.76 -1.95,-171.58 -11.99,-255.03 -5.8,-48.34 -30.24,-195.41 -3.55,-238.34 0.19,68.11 11.73,119.12 17.73,183.28 2.98,31.91 -0.19,65.79 2.02,98.56 5.87,86.8 11.29,75.86 27.47,92.67 -2.94,-60.52 -34.39,-336.8 -27.94,-369.57 55.48,-2.66 259.8,2.7 297.19,-24.01 -83.58,-21.86 -246.59,39.19 -305.48,4.83 98.5,-34.02 585.06,-29.58 789,-66.48 8.72,-112.11 -28.59,-266.3 -42.52,-382.05l-839.16 35.1 -2.5 -35.11c-22.9,-8.53 -7.78,-42.49 -15.3,-92.7l-73.13 -368.71c-14.06,-83.52 -37.65,-155.4 -55,-240.73 -8.53,-41.97 -38.01,-198.89 -60.73,-232.69 -140.49,-1.96 -122.06,14.27 -176.79,20.47 -70.08,7.94 -103.34,-5.58 -166.19,21.49 4.58,56.2 88.72,345.65 107.78,447.88 19.58,104.98 97.08,357.74 87.79,466.37 -76.28,34.52 -208.5,32.22 -308.88,35.67 -75.91,2.61 -168.12,29.46 -237.63,11.16l37.51 394.33z"/>
    <path id="1" class="fil1 str0" d="M11708.63 5634.9l-37.64 3.84 2.5 35.11 839.16 -35.1c13.94,115.75 51.25,269.94 42.52,382.05 -203.95,36.9 -689.15,50.09 -789,66.48l259.24 8.67c190.58,4.1 446.57,-35.06 567.31,-47.7 5.69,-95.03 -12.17,-146.35 -18.58,-232.73 -5.42,-72.96 -25.78,-137.88 -38.04,-213.02 -159.7,-5.66 -758.64,48.66 -827.48,32.41zm-905.72 494.66c65.52,-16.13 186.34,-7.65 245.32,-8.31 86.13,-0.96 230.88,-15.59 297.67,-11.54 33.02,63.31 78.73,603.77 79.8,738.45 0.62,79.06 -7.11,205.95 3.42,278.38l389.9 0.49c8.66,-74.31 3.35,-255.65 -3.11,-331.9 -8.87,-104.5 -8.98,-208.05 -13.5,-319.11 -16.18,-16.8 -21.6,-5.87 -27.47,-92.67 -2.21,-32.76 0.96,-66.64 -2.02,-98.56 -6,-64.16 -17.54,-115.16 -17.73,-183.28 -26.7,42.92 -2.26,190 3.55,238.34 10.05,83.45 3.86,171.27 11.99,255.03 6.1,62.92 20.33,447.83 8.06,499.5l-311.1 5.53c-19.11,-135.94 -3.98,-405.81 -33.2,-588.29 -8.69,-54.29 -15.63,-138.34 -20.98,-193.47 -30.65,-316.01 34.82,-240.42 -598.66,-217.09m-49 -396.15c70.24,22.22 166.17,-6.42 244.69,-9.12 100.38,-3.45 232.6,-1.15 308.88,-35.67 9.29,-108.63 -68.21,-361.39 -87.79,-466.37 -19.06,-102.23 -103.2,-391.68 -107.78,-447.88 62.84,-27.07 96.1,-13.55 166.19,-21.49 54.73,-6.2 36.3,-22.43 176.79,-20.47 22.72,33.79 52.2,190.71 60.73,232.69 17.35,85.34 40.94,157.21 55,240.73l73.13 368.71c7.52,50.21 -7.61,84.17 15.3,92.7 26.73,9.95 -1.22,15.49 22.85,-6.62 7.61,-68.53 -170.47,-909.34 -199.1,-961.1 -60.26,-10 -237.32,16.46 -304.07,28.67 -34.31,6.28 -73.96,3.74 -109.97,5.71 0.69,46.87 143.23,587.3 166.25,708.36l32.1 233.03c-24.04,12.06 -431.04,20.36 -511.93,39.23m43.3 415.25l4.43 -0.22c633.48,-23.34 568.01,-98.92 598.66,217.09 5.35,55.13 12.29,139.18 20.98,193.47 29.22,182.48 14.08,452.35 33.2,588.29l311.1 -5.53c12.27,-51.67 -1.96,-436.58 -8.06,-499.5 -8.14,-83.76 -1.95,-171.58 -11.99,-255.03 -5.8,-48.34 -30.24,-195.41 -3.55,-238.34 0.19,68.11 11.73,119.12 17.73,183.28 2.98,31.91 -0.19,65.79 2.02,98.56 5.87,86.8 11.29,75.86 27.47,92.67 -2.94,-60.52 -34.39,-336.8 -27.94,-369.57 55.48,-2.66 259.8,2.7 297.19,-24.01 -83.58,-21.86 -246.59,39.19 -305.48,4.83 98.5,-34.02 585.06,-29.58 789,-66.48 8.72,-112.11 -28.59,-266.3 -42.52,-382.05l-839.16 35.1 -2.5 -35.11c-22.9,-8.53 -7.78,-42.49 -15.3,-92.7l-73.13 -368.71c-14.06,-83.52 -37.65,-155.4 -55,-240.73 -8.53,-41.97 -38.01,-198.89 -60.73,-232.69 -140.49,-1.96 -122.06,14.27 -176.79,20.47 -70.08,7.94 -103.34,-5.58 -166.19,21.49 4.58,56.2 88.72,345.65 107.78,447.88 19.58,104.98 97.08,357.74 87.79,466.37 -76.28,34.52 -208.5,32.22 -308.88,35.67 -75.91,2.61 -168.12,29.46 -237.63,11.16l37.51 394.33z"/>
   </g>
   <path class="fil0 str0" d="M4755.17 9336.32c75.5,42.29 50.41,-3.01 83.12,39 7.83,10.08 8.5,8.47 13.7,35.86 16.77,88.66 -32.3,726.37 13.65,776.16 37.08,28.63 63.32,18.76 125.61,18.37 173.96,-1.07 1022.78,19.01 1056.02,-13.63 63.24,-115.97 -4.16,-633.94 27.04,-816.65 170.21,-30.06 304.54,-40.17 471.88,-79.24 325.31,-75.95 715.07,-222.17 988.55,-406.93 200.5,-135.42 432.39,-359.6 552.8,-569.2 337.98,-588.33 403.77,-1440.15 132.96,-2068.86 -337.22,-782.94 -1308.43,-1120.8 -2150.37,-1212.64l-0.51 -1649.21c-38.39,50.77 -17.26,342.01 -20.69,408.66 -11.43,223 -6.67,1176.49 -31.4,1229.69 -46.78,-85.66 -18.1,-716.8 -17.53,-872.7 0.8,-215.38 -27.28,-672.29 46.76,-818.96 39.96,19.92 92.62,32.39 144.82,58.94 40.88,20.81 87.68,45.51 134.31,74.98 472.79,298.79 390.78,304.44 678.27,531.56 51.35,-18.28 157.52,-102.11 201.63,-149.2 193.28,-206.36 195.98,-173.21 297.23,-269.74l464.12 -466.14c-21.42,-63.7 -54.68,-75.95 -113.8,-151.72 -267.93,-343.34 -591.3,-580.45 -977.57,-761.45 -55.93,-26.21 -116.95,-42.12 -187.82,-70.75 -139.99,-56.54 -418.92,-118.65 -574.34,-154.58 -163.91,-37.87 -96.48,-215.22 -95.47,-354.31 1.17,-161.01 8.58,-323.16 9.25,-487l-1184.78 3.26c-16.45,682.37 128.06,781.24 -221.78,843.62 -784.22,139.9 -1482.81,626.26 -1810.03,1351.23 -155.88,345.43 -201.04,809.88 -147.59,1240.65 62.78,505.8 412.07,997.29 818.67,1284.44 367.19,259.3 542.77,301.55 970.74,438.09 106.44,33.94 182.63,32.82 294.77,59.51 117.52,28 127.44,93.88 130.42,214.71 5.68,231.26 34.22,1240.41 -8.1,1396.22 -74.24,53.67 -89.08,43.2 -198.7,0.7 -245.94,-95.4 -773.97,-422.73 -958.34,-586.4 -49.6,-44.04 -263.76,-223.28 -343.39,-254.5l-902.77 895.26c-17.08,17.43 -91.52,70.28 -93.31,107.21 -2.02,42.54 175.94,231.88 209.94,267.36 247.19,258.24 624.77,483 974.09,611.74 60.01,22.12 120.27,39.47 171.08,56.36 125.68,41.85 219.25,77.23 352.26,106.04 113.35,24.55 241.38,61.45 367.27,83.36 134.89,23.49 275.06,19.96 400.62,59.72l-93.26 21.07zm15.49 -4571.73l38.51 -4.7 -1.6 -1432.63c-121.66,-1.83 -355.07,191.23 -421.88,253.72 -101.84,95.23 -222.53,268.91 -229.99,459.78 -17.42,444.03 341.89,550.4 614.96,723.83zm1297.63 3184.96c149.02,24.55 718.15,-179.84 717.06,-646.42 -0.5,-210.26 -79.79,-354.97 -228.51,-461.64 -105.69,-75.8 -369.61,-176.06 -486.43,-194.12l-2.12 1302.17z"/>
   <g>
    <g style="clip-path:url(#id0)">
     <polygon class="fil2" points="-0.2,0 66.36,0 66.36,4241.23 -0.2,4241.23 "/>
     <polygon id="1" class="fil3" points="44.24,0 110.6,0 110.6,4241.23 44.24,4241.23 "/>
     <polygon id="2" class="fil4" points="88.48,0 154.83,0 154.83,4241.23 88.48,4241.23 "/>
     <polygon id="3" class="fil5" points="132.71,0 199.07,0 199.07,4241.23 132.71,4241.23 "/>
     <polygon id="4" class="fil6" points="176.95,0 243.31,0 243.31,4241.23 176.95,4241.23 "/>
     <polygon id="5" class="fil7" points="221.19,0 287.55,0 287.55,4241.23 221.19,4241.23 "/>
     <polygon id="6" class="fil8" points="265.43,0 331.79,0 331.79,4241.23 265.43,4241.23 "/>
     <polygon id="7" class="fil9" points="309.67,0 376.04,0 376.04,4241.23 309.67,4241.23 "/>
     <polygon id="8" class="fil10" points="353.92,0 420.27,0 420.27,4241.23 353.92,4241.23 "/>
     <polygon id="9" class="fil11" points="398.15,0 464.51,0 464.51,4241.23 398.15,4241.23 "/>
     <polygon id="10" class="fil12" points="442.39,0 508.75,0 508.75,4241.23 442.39,4241.23 "/>
     <polygon id="11" class="fil13" points="486.63,0 552.99,0 552.99,4241.23 486.63,4241.23 "/>
     <polygon id="12" class="fil14" points="530.87,0 597.23,0 597.23,4241.23 530.87,4241.23 "/>
     <polygon id="13" class="fil15" points="575.11,0 641.46,0 641.46,4241.23 575.11,4241.23 "/>
     <polygon id="14" class="fil16" points="619.34,0 685.7,0 685.7,4241.23 619.34,4241.23 "/>
     <polygon id="15" class="fil17" points="663.58,0 729.94,0 729.94,4241.23 663.58,4241.23 "/>
     <polygon id="16" class="fil18" points="707.82,0 774.18,0 774.18,4241.23 707.82,4241.23 "/>
     <polygon id="17" class="fil19" points="752.06,0 818.42,0 818.42,4241.23 752.06,4241.23 "/>
     <polygon id="18" class="fil20" points="796.3,0 862.65,0 862.65,4241.23 796.3,4241.23 "/>
     <polygon id="19" class="fil21" points="840.54,0 906.89,0 906.89,4241.23 840.54,4241.23 "/>
     <polygon id="20" class="fil22" points="884.77,0 951.13,0 951.13,4241.23 884.77,4241.23 "/>
     <polygon id="21" class="fil23" points="929.01,0 995.37,0 995.37,4241.23 929.01,4241.23 "/>
     <polygon id="22" class="fil24" points="973.25,0 1039.62,0 1039.62,4241.23 973.25,4241.23 "/>
     <polygon id="23" class="fil25" points="1017.5,0 1083.86,0 1083.86,4241.23 1017.5,4241.23 "/>
     <polygon id="24" class="fil26" points="1061.74,0 1128.09,0 1128.09,4241.23 1061.74,4241.23 "/>
     <polygon id="25" class="fil27" points="1105.98,0 1172.33,0 1172.33,4241.23 1105.98,4241.23 "/>
     <polygon id="26" class="fil28" points="1150.21,0 1216.57,0 1216.57,4241.23 1150.21,4241.23 "/>
     <polygon id="27" class="fil29" points="1194.45,0 1260.81,0 1260.81,4241.23 1194.45,4241.23 "/>
     <polygon id="28" class="fil30" points="1238.69,0 1305.05,0 1305.05,4241.23 1238.69,4241.23 "/>
     <polygon id="29" class="fil31" points="1282.93,0 1349.28,0 1349.28,4241.23 1282.93,4241.23 "/>
     <polygon id="30" class="fil32" points="1327.17,0 1393.52,0 1393.52,4241.23 1327.17,4241.23 "/>
     <polygon id="31" class="fil33" points="1371.4,0 1437.76,0 1437.76,4241.23 1371.4,4241.23 "/>
     <polygon id="32" class="fil34" points="1415.64,0 1482,0 1482,4241.23 1415.64,4241.23 "/>
     <polygon id="33" class="fil35" points="1459.88,0 1526.24,0 1526.24,4241.23 1459.88,4241.23 "/>
     <polygon id="34" class="fil36" points="1504.12,0 1570.48,0 1570.48,4241.23 1504.12,4241.23 "/>
     <polygon id="35" class="fil37" points="1548.36,0 1614.71,0 1614.71,4241.23 1548.36,4241.23 "/>
     <polygon id="36" class="fil38" points="1592.59,0 1658.95,0 1658.95,4241.23 1592.59,4241.23 "/>
     <polygon id="37" class="fil39" points="1636.83,0 1703.2,0 1703.2,4241.23 1636.83,4241.23 "/>
     <polygon id="38" class="fil40" points="1681.08,0 1747.44,0 1747.44,4241.23 1681.08,4241.23 "/>
     <polygon id="39" class="fil41" points="1725.32,0 1791.68,0 1791.68,4241.23 1725.32,4241.23 "/>
     <polygon id="40" class="fil42" points="1769.56,0 1835.92,0 1835.92,4241.23 1769.56,4241.23 "/>
     <polygon id="41" class="fil43" points="1813.8,0 1880.15,0 1880.15,4241.23 1813.8,4241.23 "/>
     <polygon id="42" class="fil44" points="1858.03,0 1924.39,0 1924.39,4241.23 1858.03,4241.23 "/>
     <polygon id="43" class="fil45" points="1902.27,0 1968.63,0 1968.63,4241.23 1902.27,4241.23 "/>
     <polygon id="44" class="fil46" points="1946.51,0 2012.87,0 2012.87,4241.23 1946.51,4241.23 "/>
     <polygon id="45" class="fil47" points="1990.75,0 2057.11,0 2057.11,4241.23 1990.75,4241.23 "/>
     <polygon id="46" class="fil48" points="2034.99,0 2101.34,0 2101.34,4241.23 2034.99,4241.23 "/>
     <polygon id="47" class="fil49" points="2079.22,0 2145.58,0 2145.58,4241.23 2079.22,4241.23 "/>
     <polygon id="48" class="fil50" points="2123.46,0 2189.82,0 2189.82,4241.23 2123.46,4241.23 "/>
     <polygon id="49" class="fil51" points="2167.7,0 2234.06,0 2234.06,4241.23 2167.7,4241.23 "/>
     <polygon id="50" class="fil52" points="2211.94,0 2278.3,0 2278.3,4241.23 2211.94,4241.23 "/>
     <polygon id="51" class="fil53" points="2256.18,0 2322.53,0 2322.53,4241.23 2256.18,4241.23 "/>
     <polygon id="52" class="fil54" points="2300.42,0 2366.78,0 2366.78,4241.23 2300.42,4241.23 "/>
     <polygon id="53" class="fil55" points="2344.66,0 2411.02,0 2411.02,4241.23 2344.66,4241.23 "/>
     <polygon id="54" class="fil56" points="2388.9,0 2455.26,0 2455.26,4241.23 2388.9,4241.23 "/>
     <polygon id="55" class="fil57" points="2433.14,0 2499.5,0 2499.5,4241.23 2433.14,4241.23 "/>
     <polygon id="56" class="fil58" points="2477.38,0 2543.74,0 2543.74,4241.23 2477.38,4241.23 "/>
     <polygon id="57" class="fil59" points="2521.62,0 2587.97,0 2587.97,4241.23 2521.62,4241.23 "/>
     <polygon id="58" class="fil60" points="2565.86,0 2632.21,0 2632.21,4241.23 2565.86,4241.23 "/>
     <polygon id="59" class="fil61" points="2610.09,0 2676.45,0 2676.45,4241.23 2610.09,4241.23 "/>
     <polygon id="60" class="fil62" points="2654.33,0 2720.69,0 2720.69,4241.23 2654.33,4241.23 "/>
     <polygon id="61" class="fil63" points="2698.57,0 2764.93,0 2764.93,4241.23 2698.57,4241.23 "/>
     <polygon id="62" class="fil64" points="2742.81,0 2809.16,0 2809.16,4241.23 2742.81,4241.23 "/>
     <polygon id="63" class="fil65" points="2787.05,0 2853.4,0 2853.4,4241.23 2787.05,4241.23 "/>
     <polygon id="64" class="fil66" points="2831.28,0 2897.64,0 2897.64,4241.23 2831.28,4241.23 "/>
     <polygon id="65" class="fil67" points="2875.52,0 2941.88,0 2941.88,4241.23 2875.52,4241.23 "/>
     <polygon id="66" class="fil68" points="2919.76,0 2986.12,0 2986.12,4241.23 2919.76,4241.23 "/>
     <polygon id="67" class="fil69" points="2964,0 3030.37,0 3030.37,4241.23 2964,4241.23 "/>
     <polygon id="68" class="fil70" points="3008.25,0 3074.6,0 3074.6,4241.23 3008.25,4241.23 "/>
     <polygon id="69" class="fil71" points="3052.49,0 3118.84,0 3118.84,4241.23 3052.49,4241.23 "/>
     <polygon id="70" class="fil72" points="3096.72,0 3163.08,0 3163.08,4241.23 3096.72,4241.23 "/>
     <polygon id="71" class="fil73" points="3140.96,0 3207.32,0 3207.32,4241.23 3140.96,4241.23 "/>
     <polygon id="72" class="fil74" points="3185.2,0 3251.56,0 3251.56,4241.23 3185.2,4241.23 "/>
     <polygon id="73" class="fil75" points="3229.44,0 3295.8,0 3295.8,4241.23 3229.44,4241.23 "/>
     <polygon id="74" class="fil76" points="3273.68,0 3340.03,0 3340.03,4241.23 3273.68,4241.23 "/>
     <polygon id="75" class="fil77" points="3317.91,0 3384.27,0 3384.27,4241.23 3317.91,4241.23 "/>
     <polygon id="76" class="fil78" points="3362.15,0 3428.51,0 3428.51,4241.23 3362.15,4241.23 "/>
     <polygon id="77" class="fil79" points="3406.39,0 3472.75,0 3472.75,4241.23 3406.39,4241.23 "/>
     <polygon id="78" class="fil79" points="3450.63,0 3516.99,0 3516.99,4241.23 3450.63,4241.23 "/>
     <polygon id="79" class="fil80" points="3494.87,0 3561.22,0 3561.22,4241.23 3494.87,4241.23 "/>
     <polygon id="80" class="fil81" points="3539.1,0 3605.46,0 3605.46,4241.23 3539.1,4241.23 "/>
     <polygon id="81" class="fil82" points="3583.34,0 3649.7,0 3649.7,4241.23 3583.34,4241.23 "/>
     <polygon id="82" class="fil83" points="3627.58,0 3693.95,0 3693.95,4241.23 3627.58,4241.23 "/>
     <polygon id="83" class="fil84" points="3671.83,0 3738.19,0 3738.19,4241.23 3671.83,4241.23 "/>
     <polygon id="84" class="fil85" points="3716.07,0 3782.43,0 3782.43,4241.23 3716.07,4241.23 "/>
     <polygon id="85" class="fil86" points="3760.31,0 3826.66,0 3826.66,4241.23 3760.31,4241.23 "/>
     <polygon id="86" class="fil86" points="3804.54,0 3870.9,0 3870.9,4241.23 3804.54,4241.23 "/>
     <polygon id="87" class="fil87" points="3848.78,0 3915.14,0 3915.14,4241.23 3848.78,4241.23 "/>
     <polygon id="88" class="fil88" points="3893.02,0 3959.38,0 3959.38,4241.23 3893.02,4241.23 "/>
     <polygon id="89" class="fil89" points="3937.26,0 4003.62,0 4003.62,4241.23 3937.26,4241.23 "/>
     <polygon id="90" class="fil89" points="3981.5,0 4047.85,0 4047.85,4241.23 3981.5,4241.23 "/>
     <polygon id="91" class="fil90" points="4025.74,0 4092.09,0 4092.09,4241.23 4025.74,4241.23 "/>
     <polygon id="92" class="fil91" points="4069.97,0 4136.33,0 4136.33,4241.23 4069.97,4241.23 "/>
     <polygon id="93" class="fil91" points="4114.21,0 4180.57,0 4180.57,4241.23 4114.21,4241.23 "/>
     <polygon id="94" class="fil92" points="4158.45,0 4224.81,0 4224.81,4241.23 4158.45,4241.23 "/>
     <polygon id="95" class="fil93" points="4202.69,0 4269.04,0 4269.04,4241.23 4202.69,4241.23 "/>
     <polygon id="96" class="fil93" points="4246.93,0 4313.28,0 4313.28,4241.23 4246.93,4241.23 "/>
     <polygon id="97" class="fil94" points="4291.16,0 4357.53,0 4357.53,4241.23 4291.16,4241.23 "/>
     <polygon id="98" class="fil95" points="4335.41,0 4401.77,0 4401.77,4241.23 4335.41,4241.23 "/>
     <polygon id="99" class="fil95" points="4379.65,0 4446.01,0 4446.01,4241.23 4379.65,4241.23 "/>
     <polygon id="100" class="fil96" points="4423.89,0 4490.25,0 4490.25,4241.23 4423.89,4241.23 "/>
     <polygon id="101" class="fil96" points="4468.13,0 4534.48,0 4534.48,4241.23 4468.13,4241.23 "/>
     <polygon id="102" class="fil97" points="4512.37,0 4578.72,0 4578.72,4241.23 4512.37,4241.23 "/>
     <polygon id="103" class="fil97" points="4556.6,0 4622.96,0 4622.96,4241.23 4556.6,4241.23 "/>
     <polygon id="104" class="fil98" points="4600.84,0 4667.2,0 4667.2,4241.23 4600.84,4241.23 "/>
     <polygon id="105" class="fil99" points="4645.08,0 4711.44,0 4711.44,4241.23 4645.08,4241.23 "/>
     <polygon id="106" class="fil99" points="4689.32,0 4755.68,0 4755.68,4241.23 4689.32,4241.23 "/>
     <polygon id="107" class="fil100" points="4733.56,0 4799.91,0 4799.91,4241.23 4733.56,4241.23 "/>
     <polygon id="108" class="fil100" points="4777.79,0 4844.15,0 4844.15,4241.23 4777.79,4241.23 "/>
     <polygon id="109" class="fil100" points="4822.03,0 4888.39,0 4888.39,4241.23 4822.03,4241.23 "/>
     <polygon id="110" class="fil101" points="4866.27,0 4932.63,0 4932.63,4241.23 4866.27,4241.23 "/>
     <polygon id="111" class="fil101" points="4910.51,0 4976.87,0 4976.87,4241.23 4910.51,4241.23 "/>
     <polygon id="112" class="fil102" points="4954.75,0 5021.12,0 5021.12,4241.23 4954.75,4241.23 "/>
     <polygon id="113" class="fil102" points="4999,0 5065.35,0 5065.35,4241.23 4999,4241.23 "/>
     <polygon id="114" class="fil103" points="5043.23,0 5109.59,0 5109.59,4241.23 5043.23,4241.23 "/>
     <polygon id="115" class="fil103" points="5087.47,0 5153.83,0 5153.83,4241.23 5087.47,4241.23 "/>
     <polygon id="116" class="fil104" points="5131.71,0 5198.07,0 5198.07,4241.23 5131.71,4241.23 "/>
     <polygon id="117" class="fil104" points="5175.95,0 5242.31,0 5242.31,4241.23 5175.95,4241.23 "/>
     <polygon id="118" class="fil104" points="5220.19,0 5286.54,0 5286.54,4241.23 5220.19,4241.23 "/>
     <polygon id="119" class="fil105" points="5264.42,0 5330.78,0 5330.78,4241.23 5264.42,4241.23 "/>
     <polygon id="120" class="fil105" points="5308.66,0 5375.02,0 5375.02,4241.23 5308.66,4241.23 "/>
     <polygon id="121" class="fil105" points="5352.9,0 5419.26,0 5419.26,4241.23 5352.9,4241.23 "/>
     <polygon id="122" class="fil106" points="5397.14,0 5463.5,0 5463.5,4241.23 5397.14,4241.23 "/>
     <polygon id="123" class="fil106" points="5441.38,0 5507.73,0 5507.73,4241.23 5441.38,4241.23 "/>
     <polygon id="124" class="fil106" points="5485.62,0 5551.97,0 5551.97,4241.23 5485.62,4241.23 "/>
     <polygon id="125" class="fil107" points="5529.85,0 5596.21,0 5596.21,4241.23 5529.85,4241.23 "/>
     <polygon id="126" class="fil107" points="5574.09,0 5640.45,0 5640.45,4241.23 5574.09,4241.23 "/>
     <polygon id="127" class="fil107" points="5618.33,0 5684.7,0 5684.7,4241.23 5618.33,4241.23 "/>
     <polygon id="128" class="fil108" points="5662.57,0 5728.94,0 5728.94,4241.23 5662.57,4241.23 "/>
     <polygon id="129" class="fil108" points="5706.82,0 5773.17,0 5773.17,4241.23 5706.82,4241.23 "/>
     <polygon id="130" class="fil108" points="5751.06,0 5817.41,0 5817.41,4241.23 5751.06,4241.23 "/>
     <polygon id="131" class="fil109" points="5795.29,0 5861.65,0 5861.65,4241.23 5795.29,4241.23 "/>
     <polygon id="132" class="fil109" points="5839.53,0 5905.89,0 5905.89,4241.23 5839.53,4241.23 "/>
     <polygon id="133" class="fil109" points="5883.77,0 5950.13,0 5950.13,4241.23 5883.77,4241.23 "/>
     <polygon id="134" class="fil109" points="5928.01,0 5994.36,0 5994.36,4241.23 5928.01,4241.23 "/>
     <polygon id="135" class="fil110" points="5972.25,0 6038.6,0 6038.6,4241.23 5972.25,4241.23 "/>
     <polygon id="136" class="fil110" points="6016.48,0 6082.84,0 6082.84,4241.23 6016.48,4241.23 "/>
     <polygon id="137" class="fil110" points="6060.72,0 6127.08,0 6127.08,4241.23 6060.72,4241.23 "/>
     <polygon id="138" class="fil111" points="6104.96,0 6171.32,0 6171.32,4241.23 6104.96,4241.23 "/>
     <polygon id="139" class="fil111" points="6149.2,0 6215.56,0 6215.56,4241.23 6149.2,4241.23 "/>
     <polygon id="140" class="fil111" points="6193.44,0 6259.79,0 6259.79,4241.23 6193.44,4241.23 "/>
     <polygon id="141" class="fil111" points="6237.67,0 6304.03,0 6304.03,4241.23 6237.67,4241.23 "/>
     <polygon id="142" class="fil111" points="6281.91,0 6348.28,0 6348.28,4241.23 6281.91,4241.23 "/>
     <polygon id="143" class="fil112" points="6326.15,0 6392.52,0 6392.52,4241.23 6326.15,4241.23 "/>
     <polygon id="144" class="fil112" points="6370.4,0 6436.76,0 6436.76,4241.23 6370.4,4241.23 "/>
     <polygon id="145" class="fil112" points="6414.64,0 6481,0 6481,4241.23 6414.64,4241.23 "/>
     <polygon id="146" class="fil112" points="6458.88,0 6525.23,0 6525.23,4241.23 6458.88,4241.23 "/>
     <polygon id="147" class="fil113" points="6503.11,0 6569.47,0 6569.47,4241.23 6503.11,4241.23 "/>
     <polygon id="148" class="fil113" points="6547.35,0 6613.71,0 6613.71,4241.23 6547.35,4241.23 "/>
     <polygon id="149" class="fil113" points="6591.59,0 6657.95,0 6657.95,4241.23 6591.59,4241.23 "/>
     <polygon id="150" class="fil113" points="6635.83,0 6702.19,0 6702.19,4241.23 6635.83,4241.23 "/>
     <polygon id="151" class="fil113" points="6680.07,0 6746.42,0 6746.42,4241.23 6680.07,4241.23 "/>
     <polygon id="152" class="fil114" points="6724.3,0 6790.66,0 6790.66,4241.23 6724.3,4241.23 "/>
     <polygon id="153" class="fil114" points="6768.54,0 6834.9,0 6834.9,4241.23 6768.54,4241.23 "/>
     <polygon id="154" class="fil114" points="6812.78,0 6879.14,0 6879.14,4241.23 6812.78,4241.23 "/>
     <polygon id="155" class="fil114" points="6857.02,0 6923.38,0 6923.38,4241.23 6857.02,4241.23 "/>
     <polygon id="156" class="fil114" points="6901.26,0 6967.61,0 6967.61,4241.23 6901.26,4241.23 "/>
     <polygon id="157" class="fil114" points="6945.5,0 7011.86,0 7011.86,4241.23 6945.5,4241.23 "/>
     <polygon id="158" class="fil115" points="6989.73,0 7056.1,0 7056.1,4241.23 6989.73,4241.23 "/>
     <polygon id="159" class="fil115" points="7033.98,0 7100.34,0 7100.34,4241.23 7033.98,4241.23 "/>
     <polygon id="160" class="fil115" points="7078.22,0 7144.58,0 7144.58,4241.23 7078.22,4241.23 "/>
     <polygon id="161" class="fil115" points="7122.46,0 7188.82,0 7188.82,4241.23 7122.46,4241.23 "/>
     <polygon id="162" class="fil115" points="7166.7,0 7233.05,0 7233.05,4241.23 7166.7,4241.23 "/>
     <polygon id="163" class="fil115" points="7210.94,0 7277.29,0 7277.29,4241.23 7210.94,4241.23 "/>
     <polygon id="164" class="fil115" points="7255.17,0 7321.53,0 7321.53,4241.23 7255.17,4241.23 "/>
     <polygon id="165" class="fil116" points="7299.41,0 7365.77,0 7365.77,4241.23 7299.41,4241.23 "/>
     <polygon id="166" class="fil116" points="7343.65,0 7410.01,0 7410.01,4241.23 7343.65,4241.23 "/>
     <polygon id="167" class="fil116" points="7387.89,0 7454.24,0 7454.24,4241.23 7387.89,4241.23 "/>
     <polygon id="168" class="fil116" points="7432.13,0 7498.48,0 7498.48,4241.23 7432.13,4241.23 "/>
     <polygon id="169" class="fil116" points="7476.36,0 7542.72,0 7542.72,4241.23 7476.36,4241.23 "/>
     <polygon id="170" class="fil116" points="7520.6,0 7586.96,0 7586.96,4241.23 7520.6,4241.23 "/>
     <polygon id="171" class="fil116" points="7564.84,0 7631.2,0 7631.2,4241.23 7564.84,4241.23 "/>
     <polygon id="172" class="fil116" points="7609.08,0 7675.45,0 7675.45,4241.23 7609.08,4241.23 "/>
     <polygon id="173" class="fil117" points="7653.32,0 7719.68,0 7719.68,4241.23 7653.32,4241.23 "/>
     <polygon id="174" class="fil117" points="7697.57,0 7763.92,0 7763.92,4241.23 7697.57,4241.23 "/>
     <polygon id="175" class="fil117" points="7741.8,0 7808.16,0 7808.16,4241.23 7741.8,4241.23 "/>
     <polygon id="176" class="fil117" points="7786.04,0 7852.4,0 7852.4,4241.23 7786.04,4241.23 "/>
     <polygon id="177" class="fil117" points="7830.28,0 7896.64,0 7896.64,4241.23 7830.28,4241.23 "/>
     <polygon id="178" class="fil117" points="7874.52,0 7940.88,0 7940.88,4241.23 7874.52,4241.23 "/>
     <polygon id="179" class="fil117" points="7918.76,0 7985.11,0 7985.11,4241.23 7918.76,4241.23 "/>
     <polygon id="180" class="fil117" points="7962.99,0 8029.35,0 8029.35,4241.23 7962.99,4241.23 "/>
     <polygon id="181" class="fil117" points="8007.23,0 8073.59,0 8073.59,4241.23 8007.23,4241.23 "/>
     <polygon id="182" class="fil117" points="8051.47,0 8117.83,0 8117.83,4241.23 8051.47,4241.23 "/>
     <polygon id="183" class="fil118" points="8095.71,0 8162.07,0 8162.07,4241.23 8095.71,4241.23 "/>
     <polygon id="184" class="fil118" points="8139.95,0 8206.3,0 8206.3,4241.23 8139.95,4241.23 "/>
     <polygon id="185" class="fil118" points="8184.18,0 8250.54,0 8250.54,4241.23 8184.18,4241.23 "/>
     <polygon id="186" class="fil118" points="8228.42,0 8294.78,0 8294.78,4241.23 8228.42,4241.23 "/>
     <polygon id="187" class="fil118" points="8272.66,0 8339.03,0 8339.03,4241.23 8272.66,4241.23 "/>
     <polygon id="188" class="fil118" points="8316.9,0 8383.27,0 8383.27,4241.23 8316.9,4241.23 "/>
     <polygon id="189" class="fil118" points="8361.15,0 8427.51,0 8427.51,4241.23 8361.15,4241.23 "/>
     <polygon id="190" class="fil118" points="8405.39,0 8471.74,0 8471.74,4241.23 8405.39,4241.23 "/>
     <polygon id="191" class="fil118" points="8449.62,0 8515.98,0 8515.98,4241.23 8449.62,4241.23 "/>
     <polygon id="192" class="fil118" points="8493.86,0 8560.22,0 8560.22,4241.23 8493.86,4241.23 "/>
     <polygon id="193" class="fil118" points="8538.1,0 8604.46,0 8604.46,4241.23 8538.1,4241.23 "/>
     <polygon id="194" class="fil118" points="8582.34,0 8648.7,0 8648.7,4241.23 8582.34,4241.23 "/>
     <polygon id="195" class="fil118" points="8626.58,0 8692.93,0 8692.93,4241.23 8626.58,4241.23 "/>
     <polygon id="196" class="fil118" points="8670.82,0 8737.17,0 8737.17,4241.23 8670.82,4241.23 "/>
     <polygon id="197" class="fil119" points="8715.05,0 8781.41,0 8781.41,4241.23 8715.05,4241.23 "/>
     <polygon id="198" class="fil119" points="8759.29,0 8825.65,0 8825.65,4241.23 8759.29,4241.23 "/>
     <polygon id="199" class="fil119" points="8803.53,0 8869.89,0 8869.89,4241.23 8803.53,4241.23 "/>
     <polygon id="200" class="fil119" points="8847.77,0 8914.12,0 8914.12,4241.23 8847.77,4241.23 "/>
     <polygon id="201" class="fil119" points="8892.01,0 8958.36,0 8958.36,4241.23 8892.01,4241.23 "/>
     <polygon id="202" class="fil119" points="8936.24,0 9002.61,0 9002.61,4241.23 8936.24,4241.23 "/>
     <polygon id="203" class="fil119" points="8980.48,0 9046.85,0 9046.85,4241.23 8980.48,4241.23 "/>
     <polygon id="204" class="fil119" points="9024.73,0 9091.09,0 9091.09,4241.23 9024.73,4241.23 "/>
     <polygon id="205" class="fil119" points="9068.97,0 9135.33,0 9135.33,4241.23 9068.97,4241.23 "/>
     <polygon id="206" class="fil119" points="9113.21,0 9179.56,0 9179.56,4241.23 9113.21,4241.23 "/>
     <polygon id="207" class="fil119" points="9157.45,0 9223.8,0 9223.8,4241.23 9157.45,4241.23 "/>
     <polygon id="208" class="fil119" points="9201.68,0 9268.04,0 9268.04,4241.23 9201.68,4241.23 "/>
     <polygon id="209" class="fil119" points="9245.92,0 9312.28,0 9312.28,4241.23 9245.92,4241.23 "/>
     <polygon id="210" class="fil119" points="9290.16,0 9356.52,0 9356.52,4241.23 9290.16,4241.23 "/>
     <polygon id="211" class="fil119" points="9334.4,0 9400.76,0 9400.76,4241.23 9334.4,4241.23 "/>
     <polygon id="212" class="fil119" points="9378.64,0 9444.99,0 9444.99,4241.23 9378.64,4241.23 "/>
     <polygon id="213" class="fil119" points="9422.87,0 9489.23,0 9489.23,4241.23 9422.87,4241.23 "/>
     <polygon id="214" class="fil119" points="9467.11,0 9533.47,0 9533.47,4241.23 9467.11,4241.23 "/>
     <polygon id="215" class="fil119" points="9511.35,0 9577.71,0 9577.71,4241.23 9511.35,4241.23 "/>
     <polygon id="216" class="fil119" points="9555.59,0 9621.95,0 9621.95,4241.23 9555.59,4241.23 "/>
     <polygon id="217" class="fil119" points="9599.83,0 9666.2,0 9666.2,4241.23 9599.83,4241.23 "/>
     <polygon id="218" class="fil119" points="9644.06,0 9710.43,0 9710.43,4241.23 9644.06,4241.23 "/>
     <polygon id="219" class="fil120" points="9688.31,0 9754.67,0 9754.67,4241.23 9688.31,4241.23 "/>
     <polygon id="220" class="fil120" points="9732.55,0 9798.91,0 9798.91,4241.23 9732.55,4241.23 "/>
     <polygon id="221" class="fil120" points="9776.79,0 9843.15,0 9843.15,4241.23 9776.79,4241.23 "/>
     <polygon id="222" class="fil120" points="9821.03,0 9887.39,0 9887.39,4241.23 9821.03,4241.23 "/>
     <polygon id="223" class="fil120" points="9865.27,0 9931.62,0 9931.62,4241.23 9865.27,4241.23 "/>
     <polygon id="224" class="fil120" points="9909.5,0 9975.86,0 9975.86,4241.23 9909.5,4241.23 "/>
     <polygon id="225" class="fil120" points="9953.74,0 10020.1,0 10020.1,4241.23 9953.74,4241.23 "/>
     <polygon id="226" class="fil120" points="9997.98,0 10064.34,0 10064.34,4241.23 9997.98,4241.23 "/>
     <polygon id="227" class="fil120" points="10042.22,0 10108.58,0 10108.58,4241.23 10042.22,4241.23 "/>
     <polygon id="228" class="fil120" points="10086.46,0 10152.81,0 10152.81,4241.23 10086.46,4241.23 "/>
     <polygon id="229" class="fil120" points="10130.7,0 10197.05,0 10197.05,4241.23 10130.7,4241.23 "/>
     <polygon id="230" class="fil120" points="10174.93,0 10241.29,0 10241.29,4241.23 10174.93,4241.23 "/>
     <polygon id="231" class="fil120" points="10219.17,0 10285.53,0 10285.53,4241.23 10219.17,4241.23 "/>
     <polygon id="232" class="fil120" points="10263.41,0 10329.78,0 10329.78,4241.23 10263.41,4241.23 "/>
     <polygon id="233" class="fil120" points="10307.65,0 10374.02,0 10374.02,4241.23 10307.65,4241.23 "/>
     <polygon id="234" class="fil120" points="10351.9,0 10418.25,0 10418.25,4241.23 10351.9,4241.23 "/>
     <polygon id="235" class="fil120" points="10396.14,0 10462.49,0 10462.49,4241.23 10396.14,4241.23 "/>
     <polygon id="236" class="fil120" points="10440.37,0 10506.73,0 10506.73,4241.23 10440.37,4241.23 "/>
     <polygon id="237" class="fil120" points="10484.61,0 10550.97,0 10550.97,4241.23 10484.61,4241.23 "/>
     <polygon id="238" class="fil120" points="10528.85,0 10595.21,0 10595.21,4241.23 10528.85,4241.23 "/>
     <polygon id="239" class="fil120" points="10573.09,0 10639.44,0 10639.44,4241.23 10573.09,4241.23 "/>
     <polygon id="240" class="fil120" points="10617.33,0 10683.68,0 10683.68,4241.23 10617.33,4241.23 "/>
     <polygon id="241" class="fil120" points="10661.56,0 10727.92,0 10727.92,4241.23 10661.56,4241.23 "/>
     <polygon id="242" class="fil120" points="10705.8,0 10772.16,0 10772.16,4241.23 10705.8,4241.23 "/>
     <polygon id="243" class="fil120" points="10750.04,0 10816.4,0 10816.4,4241.23 10750.04,4241.23 "/>
     <polygon id="244" class="fil120" points="10794.28,0 10860.64,0 10860.64,4241.23 10794.28,4241.23 "/>
     <polygon id="245" class="fil120" points="10838.52,0 10904.87,0 10904.87,4241.23 10838.52,4241.23 "/>
     <polygon id="246" class="fil120" points="10882.75,0 10949.11,0 10949.11,4241.23 10882.75,4241.23 "/>
     <polygon id="247" class="fil120" points="10926.99,0 10993.36,0 10993.36,4241.23 10926.99,4241.23 "/>
     <polygon id="248" class="fil120" points="10971.23,0 11037.6,0 11037.6,4241.23 10971.23,4241.23 "/>
     <polygon id="249" class="fil120" points="11015.48,0 11081.84,0 11081.84,4241.23 11015.48,4241.23 "/>
     <polygon id="250" class="fil120" points="11059.72,0 11126.08,0 11126.08,4241.23 11059.72,4241.23 "/>
     <polygon id="251" class="fil120" points="11103.96,0 11170.31,0 11170.31,4241.23 11103.96,4241.23 "/>
     <polygon id="252" class="fil120" points="11148.19,0 11214.55,0 11214.55,4241.23 11148.19,4241.23 "/>
     <polygon id="253" class="fil120" points="11192.43,0 11258.79,0 11258.79,4241.23 11192.43,4241.23 "/>
     <polygon id="254" class="fil120" points="11236.67,0 11303.03,0 11303.03,4241.23 11236.67,4241.23 "/>
     <polygon id="255" class="fil0" points="11280.91,0 11325.15,0 11325.15,4241.23 11280.91,4241.23 "/>
    </g>
   </g>
  </g>
 </g>
</svg>
